<svg id="Layer_1" data-name="Layer 1" xmlns="http://www.w3.org/2000/svg" viewBox="0 0 427.03 365.75"><defs><style>.cls-1{fill:#fff;}</style></defs><title>send</title><path class="cls-1" d="M253,208.73c10.11,4.21,20.27,8.32,30.33,12.63q196.08,84,392.14,168.06c1.35.58,2.64,1.27,4.56,2.2-2,1-3.47,1.71-4.94,2.34q-208.9,89.52-417.81,179c-1.39.59-2.85,1-4.28,1.5v-142c20.11-2.76,40.2-5.58,60.32-8.27q54.78-7.33,109.57-14.54,55.62-7.4,111.22-14.83c6.79-.91,13.57-1.87,21.2-2.93-1.15-.66-1.44-1-1.77-1q-32-4.29-64.09-8.53L392.7,369.54q-48.78-6.51-97.57-13c-14.05-1.88-28.09-3.88-42.13-5.82Z" transform="translate(-253 -208.73)"/></svg>